# xmcd
#
# Track frame offsets: 
#        150
#        19985
#        34835
#        53810
#        70835
#        86585
#        100540
#        115690
#        136315
#        153490
#
# Disc length: 2272 seconds
#
# Revision: 1
# Processed by: cddbd v1.5.2PL0 Copyright (c) Steve Scherf et al.
# Submitted via: ExactAudioCopyFreeDBPlugin 1.0
#
DISCID=7a08de0a
DTITLE=Grupo Exterminador - Corridos Perrones 1
DYEAR=1996
DGENRE=Latin
TTITLE0=Los Dos Rivales
TTITLE1=Las Panteras
TTITLE2=Los Cocodrilos
TTITLE3=El Chupa Cabras
TTITLE4=El Perro Negro
TTITLE5=El Cartel De La Calle
TTITLE6=El Mexicano Mojado
TTITLE7=Las Monjitas
TTITLE8=El Diablo De Sinaloa
TTITLE9=El Chupa Cabras II
EXTD=
EXTT0=
EXTT1=
EXTT2=
EXTT3=
EXTT4=
EXTT5=
EXTT6=
EXTT7=
EXTT8=
EXTT9=
PLAYORDER=
